<?xml version="1.0" encoding="utf-8"?>
<!-- Generator: Adobe Illustrator 22.1.0, SVG Export Plug-In . SVG Version: 6.00 Build 0)  -->
<svg version="1.1" id="Layer_1" xmlns="http://www.w3.org/2000/svg" xmlns:xlink="http://www.w3.org/1999/xlink" x="0px" y="0px"
	 viewBox="0 0 32 32" style="enable-background:new 0 0 32 32;" xml:space="preserve">
<style type="text/css">
	.st0{fill:#646766;}
	.st1{fill:#FFFFFF;}
	.st2{fill:#4EB748;}
	.st3{fill:none;stroke:#4EB748;stroke-width:2;stroke-linecap:square;stroke-miterlimit:10;}
	.st4{fill:#4D82B8;}
</style>
<polygon class="st0" points="8,5 8,3 1,3 1,5 1,26 1,28 8,28 8,26 3,26 3,5 "/>
<g>
	<g>
		<rect x="17.4" y="17.4" class="st1" width="14.3" height="14.3"/>
		<path class="st2" d="M31.3,17.8v13.5H17.8V17.8H31.3 M32,17h-0.8H17.8H17v0.8v13.5V32h0.8h13.5H32v-0.8V17.8V17L32,17z"/>
	</g>
	<g>
		<line class="st3" x1="20.8" y1="24.7" x2="23.4" y2="27.3"/>
		<line class="st3" x1="23.4" y1="27.3" x2="28.6" y2="22.1"/>
	</g>
</g>
<path class="st4" d="M18.5,13.8c0.2-0.1,0.3-0.3,0.3-0.5v-1.5h1.4c1.1,0,2.1,0.9,2.1,2.1V16H25v-2.1c0-2.7-2.2-4.8-4.8-4.8h-1.4V7.6
	c0-0.2-0.1-0.4-0.3-0.5C18.4,7,18.3,7,18.2,7c-0.1,0-0.2,0-0.3,0.1L15,10c-0.2,0.2-0.3,0.3-0.3,0.5c0,0.2,0.1,0.3,0.3,0.5l3,2.9
	C18.1,14,18.3,13.9,18.5,13.8z"/>
<path class="st4" d="M16,20l-1.9-1.9c-0.2-0.1-0.4-0.1-0.6,0c-0.2,0.1-0.3,0.3-0.3,0.5v1.5h-1.4c-1.1,0-2.1-0.9-2.1-2.1v-4.2
	c0-1.1,0.9-2.1,2.1-2.1c0.8,0,1.4-0.6,1.4-1.4s-0.6-1.4-1.4-1.4C9.2,9.1,7,11.3,7,13.9v4.2c0,2.7,2.2,4.8,4.8,4.8h1.4v1.5
	c0,0.2,0.1,0.4,0.3,0.5c0.1,0.1,0.2,0.1,0.3,0.1c0.1,0,0.2,0,0.3-0.1L16,23V20z"/>
<polygon class="st0" points="29,16 31,16 31,5 31,3 24,3 24,5 29,5 "/>
</svg>
