<?xml version="1.0" encoding="utf-8"?>
<!-- Generator: Adobe Illustrator 22.1.0, SVG Export Plug-In . SVG Version: 6.00 Build 0)  -->
<svg version="1.1" id="Layer_1" xmlns="http://www.w3.org/2000/svg" xmlns:xlink="http://www.w3.org/1999/xlink" x="0px" y="0px"
	 viewBox="0 0 32 32" style="enable-background:new 0 0 32 32;" xml:space="preserve">
<style type="text/css">
	.st0{fill:#646766;}
	.st1{fill:#FFFFFF;}
	.st2{fill:#EDC87E;}
</style>
<path class="st0" d="M17,4V1h-6v3H7v4h14V4H17z M15,5h-2V3h2V5z"/>
<g>
	<g>
		<path class="st1" d="M28,27H13c-0.6,0-1-0.5-1-1v-9c0-0.5,0.4-1,1-1h15c0.5,0,1,0.5,1,1v9C29,26.5,28.5,27,28,27z"/>
		<path class="st0" d="M28,16c0.5,0,1,0.5,1,1v9c0,0.5-0.5,1-1,1H13c-0.6,0-1-0.5-1-1v-9c0-0.5,0.4-1,1-1H28 M28,15H13
			c-1.1,0-2,0.9-2,2v9c0,1.1,0.9,2,2,2h15c1.1,0,2-0.9,2-2v-9C30,15.9,29.1,15,28,15L28,15z"/>
	</g>
	<rect x="17" y="30" class="st0" width="7" height="1"/>
	<rect x="19" y="29" class="st0" width="3" height="1"/>
</g>
<rect x="14" y="11" class="st2" width="12" height="3"/>
<polygon class="st2" points="22,4 22,9 6,9 6,4 2,4 2,9 2,29 6,29 10,29 10,14 14,14 14,11 26,11 26,9 26,4 "/>
</svg>
