<?xml version="1.0" encoding="utf-8"?>
<!-- Generator: Adobe Illustrator 22.1.0, SVG Export Plug-In . SVG Version: 6.00 Build 0)  -->
<svg version="1.1" id="Layer_1" xmlns="http://www.w3.org/2000/svg" xmlns:xlink="http://www.w3.org/1999/xlink" x="0px" y="0px"
	 viewBox="0 0 16 16" style="enable-background:new 0 0 16 16;" xml:space="preserve">
<style type="text/css">
	.st0{fill:#FFFFFF;}
	.st1{fill:none;stroke:#656867;stroke-linecap:square;stroke-miterlimit:10;}
	.st2{fill:#656867;}
	.st3{fill:#4E84B9;}
	.st4{enable-background:new    ;}
</style>
<g>
	<rect x="7" y="6.5" class="st0" width="7.5" height="7"/>
	<rect x="1.5" y="6.5" class="st0" width="2.5" height="7"/>
</g>
<g>
	<line class="st1" x1="7.5" y1="15.5" x2="3.5" y2="15.5"/>
	<line class="st1" x1="5.5" y1="14.5" x2="5.5" y2="5.5"/>
	<line class="st1" x1="7.5" y1="4.5" x2="3.5" y2="4.5"/>
</g>
<g>
	<polygon class="st2" points="14,7 14,13 7,13 7,14 15,14 15,6 7,6 7,7 	"/>
	<polygon class="st2" points="4,14 4,13 2,13 2,7 4,7 4,6 1,6 1,14 	"/>
</g>
<rect class="st3" width="16" height="8"/>
<g class="st4">
	<path class="st0" d="M1,7V1h0.7l2.6,4.7V1h0.6v6H4.2L1.6,2.3V7H1z"/>
	<path class="st0" d="M6,7V1h1l1.2,4.2l0.2,0.9c0.1-0.2,0.1-0.5,0.3-1L9.8,1h0.9v6H10V2L8.6,7H8L6.6,1.9V7H6z"/>
</g>
</svg>
