<?xml version="1.0" encoding="utf-8"?>
<!-- Generator: Adobe Illustrator 22.1.0, SVG Export Plug-In . SVG Version: 6.00 Build 0)  -->
<svg version="1.1" id="Layer_1" xmlns="http://www.w3.org/2000/svg" xmlns:xlink="http://www.w3.org/1999/xlink" x="0px" y="0px"
	 viewBox="0 0 16 16" style="enable-background:new 0 0 16 16;" xml:space="preserve">
<style type="text/css">
	.st0{fill:#FFFFFF;}
	.st1{fill:#656867;}
	.st2{fill:#5185BA;}
</style>
<rect x="4" y="1" class="st0" width="7" height="5"/>
<rect x="8" y="1" class="st1" width="2" height="4"/>
<g>
	<polygon class="st1" points="6.8,12 3,12 3,7 12,7 12,7.2 13.3,5.9 13.2,5.7 14,4.9 14,2.8 12.2,1 11,1 11,6 4,6 4,1 1,1 1,14 
		6.5,14 	"/>
	<polygon class="st1" points="12,11 12,12 11,12 9.2,13.9 9.3,14 14,14 14,9 	"/>
</g>
<g>
	<rect x="14.4" y="5.1" transform="matrix(0.7071 -0.7071 0.7071 0.7071 0.1645 12.2809)" class="st2" width="1.1" height="1.7"/>
	<rect x="7" y="9" transform="matrix(0.7071 -0.7071 0.7071 0.7071 -3.6604 10.8588)" class="st2" width="8.5" height="1.7"/>
	<polygon class="st2" points="7,14 8.4,13.8 7.2,12.6 	"/>
</g>
<g>
	<polygon class="st0" points="6.8,11.5 7.3,12 12,7.2 12,7 3,7 3,12 6.8,12 	"/>
	<polygon class="st0" points="11,12 12,12 12,11 	"/>
</g>
</svg>
