<?xml version="1.0" encoding="utf-8"?>
<!-- Generator: Adobe Illustrator 22.1.0, SVG Export Plug-In . SVG Version: 6.00 Build 0)  -->
<svg version="1.1" id="Layer_1" xmlns="http://www.w3.org/2000/svg" xmlns:xlink="http://www.w3.org/1999/xlink" x="0px" y="0px"
	 viewBox="0 0 16 16" style="enable-background:new 0 0 16 16;" xml:space="preserve">
<style type="text/css">
	.st0{fill:#646766;}
	.st1{fill:#FFFFFF;}
	.st2{fill:#D86344;}
</style>
<path class="st0" d="M11,0H1v16h13V3L11,0z M11,1.4L12.6,3H11V1.4z M13,15H2V1h8v3h3V15z"/>
<polygon class="st1" points="12.6,3 11,3 11,1.4 "/>
<polygon class="st1" points="13,4 13,15 2,15 2,1 10,1 10,4 "/>
<circle class="st2" cx="7.5" cy="9.5" r="4.5"/>
<path class="st1" d="M10,7.3L9.6,7C9.4,6.8,9.2,6.9,9.2,7.1l-2.3,3.4L5.7,9.4c-0.2-0.1-0.3-0.1-0.5,0L4.9,9.8
	c-0.1,0.2-0.1,0.3,0,0.5l1.6,1.6c0.1,0.1,0.2,0.2,0.4,0.2c0.2,0,0.2-0.1,0.4-0.2l2.8-4.2C10.3,7.5,10.2,7.4,10,7.3z"/>
</svg>
