<?xml version="1.0" encoding="utf-8"?>
<!-- Generator: Adobe Illustrator 22.1.0, SVG Export Plug-In . SVG Version: 6.00 Build 0)  -->
<svg version="1.1" id="Layer_1" xmlns="http://www.w3.org/2000/svg" xmlns:xlink="http://www.w3.org/1999/xlink" x="0px" y="0px"
	 viewBox="0 0 16 16" style="enable-background:new 0 0 16 16;" xml:space="preserve">
<style type="text/css">
	.st0{fill:none;stroke:#656867;stroke-linecap:square;stroke-miterlimit:10;}
	.st1{fill:none;stroke:#B2B2B2;stroke-miterlimit:10;stroke-dasharray:1;}
	.st2{fill:none;stroke:#4F83B9;stroke-width:2;stroke-miterlimit:10;}
	.st3{fill:#4F83B9;}
	.st4{fill:#FFFFFF;}
	.st5{fill:#4EB748;}
</style>
<g>
	<rect x="5.5" y="10.5" class="st0" width="3" height="3"/>
	<line class="st1" x1="0.5" y1="14" x2="0.5" y2="4"/>
	<line class="st1" x1="13.5" y1="14" x2="13.5" y2="4"/>
	<rect x="0.5" y="0.5" class="st0" width="13" height="3"/>
	<g>
		<g>
			<line class="st2" x1="4" y1="12" x2="1.2" y2="12"/>
			<g>
				<polygon class="st3" points="1.6,14.6 0,12 1.6,9.4 1.6,9.4 				"/>
			</g>
		</g>
	</g>
	<g>
		<g>
			<line class="st2" x1="10" y1="12" x2="12.8" y2="12"/>
			<g>
				<polygon class="st3" points="12.4,9.4 14,12 12.4,14.6 12.4,14.6 				"/>
			</g>
		</g>
	</g>
</g>
<rect x="7" y="7" class="st4" width="9" height="9"/>
<g>
	<polygon class="st5" points="14,9 14,8 9,8 8,8 8,9 8,14 9,14 9,9 	"/>
	<polygon class="st5" points="13.4,12.6 11,10.3 10.3,11 12.6,13.4 11,15 15,15 15,11 	"/>
</g>
</svg>
